<svg width="25" height="25" viewBox="0 0 25 25" fill="none" xmlns="http://www.w3.org/2000/svg">
<path d="M12.54 2.91601C7.08005 2.91601 2.63005 7.36601 2.63005 12.826C2.63005 14.576 3.09005 16.276 3.95005 17.776L2.55005 22.916L7.80005 21.536C9.25005 22.326 10.88 22.746 12.54 22.746C18 22.746 22.4501 18.296 22.4501 12.836C22.4501 10.186 21.42 7.69601 19.55 5.82601C18.6331 4.90011 17.5411 4.16597 16.3376 3.66637C15.134 3.16677 13.8431 2.91169 12.54 2.91601ZM12.55 4.58601C14.75 4.58601 16.81 5.44601 18.37 7.00601C19.1354 7.77153 19.7423 8.68052 20.1558 9.68093C20.5694 10.6813 20.7815 11.7535 20.7801 12.836C20.7801 17.376 17.08 21.066 12.54 21.066C11.06 21.066 9.61005 20.676 8.35005 19.916L8.05005 19.746L4.93005 20.566L5.76005 17.526L5.56005 17.206C4.7346 15.8944 4.29772 14.3757 4.30005 12.826C4.31005 8.28601 8.00005 4.58601 12.55 4.58601ZM9.03005 8.24601C8.87005 8.24601 8.60005 8.30601 8.37005 8.55601C8.15005 8.80601 7.50005 9.41601 7.50005 10.626C7.50005 11.846 8.39005 13.016 8.50005 13.186C8.64005 13.356 10.26 15.856 12.75 16.916C13.34 17.186 13.8 17.336 14.16 17.446C14.75 17.636 15.29 17.606 15.72 17.546C16.2 17.476 17.18 16.946 17.39 16.366C17.6 15.786 17.6 15.296 17.54 15.186C17.47 15.086 17.31 15.026 17.06 14.916C16.81 14.776 15.59 14.176 15.37 14.096C15.14 14.016 15 13.976 14.81 14.216C14.65 14.466 14.17 15.026 14.03 15.186C13.88 15.356 13.74 15.376 13.5 15.256C13.24 15.126 12.44 14.866 11.5 14.026C10.76 13.366 10.27 12.556 10.12 12.306C10 12.066 10.11 11.916 10.23 11.806C10.34 11.696 10.5 11.516 10.6 11.366C10.73 11.226 10.77 11.116 10.85 10.956C10.93 10.786 10.89 10.646 10.83 10.526C10.77 10.416 10.27 9.17601 10.06 8.68601C9.86005 8.20601 9.66005 8.26601 9.50005 8.25601C9.36005 8.25601 9.20005 8.24601 9.03005 8.24601Z" fill="white"/>
</svg>
