<svg width="25" height="25" viewBox="0 0 25 25" fill="none" xmlns="http://www.w3.org/2000/svg">
<path d="M10.978 22.041C11.9834 22.2081 13.0094 22.2088 14.015 22.043M10.978 22.041C8.81845 21.6805 6.85578 20.5657 5.44091 18.8948C4.02604 17.224 3.24971 15.1054 3.25 12.916C3.25036 11.1514 3.75548 9.42365 4.70575 7.93673C5.65602 6.44981 7.01179 5.26573 8.61307 4.52421C10.2143 3.78269 11.9943 3.51468 13.743 3.7518C15.4916 3.98893 17.1359 4.72128 18.4819 5.86246C19.8279 7.00364 20.8193 8.50601 21.3393 10.1923C21.8593 11.8786 21.8861 13.6784 21.4165 15.3794C20.9469 17.0805 20.0005 18.6117 18.6891 19.7924C17.3776 20.9731 15.7558 21.754 14.015 22.043M10.978 22.041L10.977 17.036H9.08C8.92087 17.036 8.76826 16.9728 8.65574 16.8603C8.54321 16.7477 8.48 16.5951 8.48 16.436V14.598C8.48 14.4389 8.54321 14.2863 8.65574 14.1737C8.76826 14.0612 8.92087 13.998 9.08 13.998H10.977V10.866C10.977 10.0704 11.2931 9.30729 11.8557 8.74468C12.4183 8.18207 13.1814 7.866 13.977 7.866H15.787C16.0522 7.866 16.3066 7.97136 16.4941 8.1589C16.6816 8.34643 16.787 8.60079 16.787 8.866V9.906C16.787 10.1712 16.6816 10.4256 16.4941 10.6131C16.3066 10.8006 16.0522 10.906 15.787 10.906H15.015C14.7498 10.906 14.4954 11.0114 14.3079 11.1989C14.1204 11.3864 14.015 11.6408 14.015 11.906V13.998H16.312C16.3991 13.998 16.4851 14.0169 16.5642 14.0535C16.6432 14.0901 16.7133 14.1435 16.7696 14.2099C16.826 14.2763 16.8672 14.3542 16.8904 14.4382C16.9136 14.5221 16.9182 14.6101 16.904 14.696L16.654 16.2C16.6152 16.4335 16.4948 16.6457 16.3142 16.7987C16.1337 16.9518 15.9047 17.0359 15.668 17.036H14.015V22.043" stroke="white" stroke-width="1.5" stroke-linecap="round"/>
</svg>
