<svg width="25" height="25" viewBox="0 0 25 25" fill="none" xmlns="http://www.w3.org/2000/svg">
<path d="M12.501 9.91602C11.7054 9.91602 10.9423 10.2321 10.3797 10.7947C9.81707 11.3573 9.501 12.1204 9.501 12.916C9.501 13.7117 9.81707 14.4747 10.3797 15.0373C10.9423 15.5999 11.7054 15.916 12.501 15.916C13.2966 15.916 14.0597 15.5999 14.6223 15.0373C15.1849 14.4747 15.501 13.7117 15.501 12.916C15.501 12.1204 15.1849 11.3573 14.6223 10.7947C14.0597 10.2321 13.2966 9.91602 12.501 9.91602ZM12.501 7.91602C13.8271 7.91602 15.0989 8.4428 16.0365 9.38048C16.9742 10.3182 17.501 11.5899 17.501 12.916C17.501 14.2421 16.9742 15.5139 16.0365 16.4515C15.0989 17.3892 13.8271 17.916 12.501 17.916C11.1749 17.916 9.90315 17.3892 8.96547 16.4515C8.02778 15.5139 7.501 14.2421 7.501 12.916C7.501 11.5899 8.02778 10.3182 8.96547 9.38048C9.90315 8.4428 11.1749 7.91602 12.501 7.91602ZM19.001 7.66602C19.001 7.99754 18.8693 8.31548 18.6349 8.5499C18.4005 8.78432 18.0825 8.91602 17.751 8.91602C17.4195 8.91602 17.1015 8.78432 16.8671 8.5499C16.6327 8.31548 16.501 7.99754 16.501 7.66602C16.501 7.3345 16.6327 7.01655 16.8671 6.78213C17.1015 6.54771 17.4195 6.41602 17.751 6.41602C18.0825 6.41602 18.4005 6.54771 18.6349 6.78213C18.8693 7.01655 19.001 7.3345 19.001 7.66602ZM12.501 4.91602C10.027 4.91602 9.623 4.92302 8.472 4.97402C7.688 5.01102 7.162 5.11602 6.674 5.30602C6.26583 5.45639 5.89672 5.69665 5.594 6.00902C5.28127 6.31163 5.04066 6.68075 4.89 7.08902C4.7 7.57902 4.595 8.10402 4.559 8.88702C4.507 9.99102 4.5 10.377 4.5 12.916C4.5 15.391 4.507 15.794 4.558 16.945C4.595 17.728 4.7 18.255 4.889 18.742C5.059 19.177 5.259 19.49 5.591 19.822C5.928 20.158 6.241 20.359 6.671 20.525C7.165 20.716 7.691 20.822 8.471 20.858C9.575 20.91 9.961 20.916 12.5 20.916C14.975 20.916 15.378 20.909 16.529 20.858C17.311 20.821 17.837 20.716 18.326 20.527C18.7342 20.3766 19.1033 20.1364 19.406 19.824C19.743 19.488 19.944 19.175 20.11 18.744C20.3 18.252 20.406 17.726 20.442 16.944C20.494 15.841 20.5 15.454 20.5 12.916C20.5 10.442 20.493 10.038 20.442 8.88702C20.405 8.10502 20.299 7.57702 20.11 7.08902C19.9596 6.68085 19.7194 6.31174 19.407 6.00902C19.1044 5.69629 18.7353 5.45568 18.327 5.30502C17.837 5.11502 17.311 5.01002 16.529 4.97402C15.426 4.92202 15.04 4.91602 12.5 4.91602M12.5 2.91602C15.217 2.91602 15.556 2.92602 16.623 2.97602C17.687 3.02602 18.413 3.19302 19.05 3.44102C19.71 3.69502 20.266 4.03902 20.822 4.59402C21.3307 5.09375 21.7242 5.69849 21.975 6.36602C22.222 7.00302 22.39 7.72902 22.44 8.79402C22.487 9.86002 22.5 10.199 22.5 12.916C22.5 15.633 22.49 15.972 22.44 17.038C22.39 18.104 22.222 18.828 21.975 19.466C21.7242 20.1335 21.3307 20.7383 20.822 21.238C20.3223 21.7467 19.7175 22.1402 19.05 22.391C18.413 22.638 17.687 22.806 16.623 22.856C15.556 22.903 15.217 22.916 12.5 22.916C9.783 22.916 9.444 22.906 8.377 22.856C7.313 22.806 6.588 22.638 5.95 22.391C5.28247 22.1402 4.67773 21.7467 4.178 21.238C3.66931 20.7383 3.27582 20.1335 3.025 19.466C2.777 18.829 2.61 18.103 2.56 17.038C2.512 15.972 2.5 15.633 2.5 12.916C2.5 10.199 2.51 9.86002 2.56 8.79402C2.61 7.72802 2.777 7.00402 3.025 6.36602C3.27582 5.69849 3.66931 5.09375 4.178 4.59402C4.67773 4.08532 5.28247 3.69183 5.95 3.44102C6.587 3.19302 7.312 3.02602 8.377 2.97602C9.445 2.92902 9.784 2.91602 12.501 2.91602" fill="white"/>
</svg>
